<?xml version="1.0" encoding="UTF-8" standalone="no"?>
<svg
   viewBox="0,0,256,256"
   width="250px"
   height="250px"
   version="1.1"
   id="svg8"
   sodipodi:docname="c.svg"
   inkscape:version="1.1.2 (0a00cf5339, 2022-02-04)"
   xmlns:inkscape="http://www.inkscape.org/namespaces/inkscape"
   xmlns:sodipodi="http://sodipodi.sourceforge.net/DTD/sodipodi-0.dtd"
   xmlns="http://www.w3.org/2000/svg"
   xmlns:svg="http://www.w3.org/2000/svg">
  <defs
     id="defs12" />
  <sodipodi:namedview
     id="namedview10"
     pagecolor="#ffffff"
     bordercolor="#666666"
     borderopacity="1.0"
     inkscape:pageshadow="2"
     inkscape:pageopacity="0.0"
     inkscape:pagecheckerboard="0"
     showgrid="false"
     inkscape:zoom="1.3519882"
     inkscape:cx="212.27996"
     inkscape:cy="89.127999"
     inkscape:window-width="1366"
     inkscape:window-height="731"
     inkscape:window-x="0"
     inkscape:window-y="0"
     inkscape:window-maximized="1"
     inkscape:current-layer="svg8" />
  <g
     fill="#ffffff"
     fill-rule="nonzero"
     stroke="none"
     stroke-width="1"
     stroke-linecap="butt"
     stroke-linejoin="miter"
     stroke-miterlimit="10"
     stroke-dasharray="none"
     stroke-dashoffset="0"
     font-family="none"
     font-weight="none"
     font-size="none"
     text-anchor="none"
     style="mix-blend-mode:normal"
     id="g6"
     transform="translate(-5.12e-5,-0.0075264)">
    <g
       transform="scale(5.12)"
       id="g4">
      <path
         id="path2"
         d="M 43.91016,12.00391 27.07032,2.53907 c -1.27734,-0.71484 -2.86328,-0.71484 -4.14062,0 L 6.08986,12.00391 C 4.8008,12.72657 4.00002,14.08204 4.00002,15.53516 v 18.92969 c 0,1.45313 0.80078,2.80859 2.08984,3.53125 L 22.9297,47.46094 C 23.57033,47.82032 24.28517,48 25.00001,48 c 0.71484,0 1.42969,-0.17969 2.07031,-0.53906 L 43.91016,37.9961 C 45.19922,37.27344 46,35.91798 46,34.46485 V 15.53516 c 0,-1.45312 -0.80078,-2.80859 -2.08984,-3.53125 z M 25,37 c -6.61719,0 -12,-5.38281 -12,-12 0,-6.61719 5.38281,-12 12,-12 3.78125,0 7.27344,1.75391 9.54297,4.74219 l -4.38281,2.53516 C 28.84375,18.83594 26.97266,18.00001 25,18.00001 c -3.85937,0 -7,3.14063 -7,7 0,3.85938 3.14063,7 7,7 1.97266,0 3.84375,-0.83594 5.16016,-2.27734 l 4.38281,2.53516 C 32.27344,35.24611 28.78125,37.00002 25,37.00002 Z"
         sodipodi:nodetypes="ccccssccsccssccssccssscccc" />
    </g>
  </g>
</svg>
