<svg width="250" height="250" xmlns="http://www.w3.org/2000/svg"><path style="fill:none;stroke:#fff;stroke-width:12.3618;stroke-linecap:round;paint-order:stroke markers fill" d="M168.522 22.763c-14.752 1.266-27.737 9.864-39.728 17.967-38.042 28.28-60.146 72.786-72.92 117.431-5.286 18.687-6.262 40.592 4.36 57.639 7 11.153 21.84 13.55 33.37 8.775 32.998-10.279 54.795-39.548 72.76-67.349 17.844-28.629 30.819-61.524 31.698-95.54-.575-15.702-7.59-35.447-25.055-38.594l-2.193-.259z"/><path style="fill:none;stroke:#fff;stroke-width:12.3618;stroke-linecap:round;paint-order:stroke markers fill" d="M127.25 72.703c-26.613.638-53.488 4.365-78.669 13.166-15.672 6.822-32.685 17.499-36.733 35.318-2.97 15.298 10.138 26.61 21.368 34.392 28.519 18.584 63.864 20.956 96.957 21.568 30.244-.646 61.101-6.446 87.74-21.188 13.493-8.724 26.054-26.372 18.331-42.734-6.83-12.124-20.216-18.525-31.957-25.007-23.84-11.618-50.701-15.79-77.037-15.515Z"/><path style="fill:none;stroke:#fff;stroke-width:12.3618;stroke-linecap:round;paint-order:stroke markers fill" d="M82.134 22.734C64.1 22.212 53.61 41.173 52.146 57.012c-1.031 15.876 2.809 31.74 6.944 46.985 11.042 35.722 31.58 68.158 57.113 95.278 15.035 15.148 35.158 27.882 57.147 27.267 16.277-3.019 23.958-20.366 24.239-35.461 1.405-28.741-10.098-56.081-21.814-81.702-17.85-36.86-46.307-71.347-85.932-85.404-2.505-.725-5.098-1.177-7.709-1.241Z"/><path style="fill:#fff;stroke:none;stroke-width:20.3814;stroke-linecap:round;paint-order:stroke markers fill" d="M149.757 125.043c1.847 20.742-26.984 31.872-41.487 18.694-9.776-9.046-12.148-26.919-.66-35.727 11.113-10.403 32.94-9.951 39.367 5.477 1.71 3.61 2.826 7.535 2.78 11.556z"/></svg>