<svg width="256" height="256" xmlns:xlink="http://www.w3.org/1999/xlink" xmlns="http://www.w3.org/2000/svg"><defs><linearGradient id="a"><stop style="stop-color:#f0f;stop-opacity:1" offset="0"/><stop style="stop-color:#0191ff;stop-opacity:1" offset="1"/></linearGradient><linearGradient xlink:href="#a" id="b" x1="1.27" y1="1.69" x2="254.49" y2="254.91" gradientUnits="userSpaceOnUse"/></defs><circle style="fill:#fff;stroke-width:5.77098;stroke-linecap:round;stroke-linejoin:round;paint-order:stroke markers fill" cx="128" cy="128" r="115"/><path style="fill:url(#b);stroke-width:6.94558;stroke-linecap:round;stroke-linejoin:round;paint-order:stroke markers fill;fill-opacity:1" d="M128 1A127 127 0 0 0 1 128a127 127 0 0 0 127 127 127 127 0 0 0 127-127A127 127 0 0 0 128 1zm0 25.57a101.43 101.43 0 0 1 4.98.12 101.43 101.43 0 0 1 4.96.37 101.43 101.43 0 0 1 4.94.6 101.43 101.43 0 0 1 4.9.86 101.43 101.43 0 0 1 4.87 1.09 101.43 101.43 0 0 1 4.8 1.33 101.43 101.43 0 0 1 4.72 1.56 101.43 101.43 0 0 1 4.65 1.79 101.43 101.43 0 0 1 4.55 2.02 101.43 101.43 0 0 1 4.44 2.23 101.43 101.43 0 0 1 4.34 2.46 101.43 101.43 0 0 1 4.2 2.66 101.43 101.43 0 0 1 4.07 2.87 101.43 101.43 0 0 1 3.93 3.06 101.43 101.43 0 0 1 3.77 3.25 101.43 101.43 0 0 1 3.6 3.44 101.43 101.43 0 0 1 3.44 3.6 101.43 101.43 0 0 1 3.25 3.77 101.43 101.43 0 0 1 3.06 3.93 101.43 101.43 0 0 1 2.87 4.07 101.43 101.43 0 0 1 2.66 4.2 101.43 101.43 0 0 1 2.46 4.34 101.43 101.43 0 0 1 2.23 4.44 101.43 101.43 0 0 1 2.02 4.55 101.43 101.43 0 0 1 1.8 4.65 101.43 101.43 0 0 1 1.55 4.73 101.43 101.43 0 0 1 1.33 4.8 101.43 101.43 0 0 1 1.1 4.85 101.43 101.43 0 0 1 .84 4.9 101.43 101.43 0 0 1 .61 4.95 101.43 101.43 0 0 1 .37 4.96 101.43 101.43 0 0 1 .12 4.98 101.43 101.43 0 0 1-1.03 14.44 101.43 101.43 0 0 1-3.08 14.14 101.43 101.43 0 0 1-5.05 13.56 101.43 101.43 0 0 1-6.94 12.7 101.43 101.43 0 0 1-8.67 11.58 101.43 101.43 0 0 1-10.24 10.24 101.43 101.43 0 0 1-11.58 8.67 101.43 101.43 0 0 1-12.7 6.94 101.43 101.43 0 0 1-13.56 5.05 101.43 101.43 0 0 1-14.14 3.08 101.43 101.43 0 0 1-14.44 1.03 101.43 101.43 0 0 1-14.44-1.03 101.43 101.43 0 0 1-14.14-3.08 101.43 101.43 0 0 1-13.56-5.05 101.43 101.43 0 0 1-12.7-6.94 101.43 101.43 0 0 1-11.58-8.67 101.43 101.43 0 0 1-10.24-10.24 101.43 101.43 0 0 1-8.67-11.58 101.43 101.43 0 0 1-6.94-12.7 101.43 101.43 0 0 1-5.05-13.56 101.43 101.43 0 0 1-3.08-14.14A101.43 101.43 0 0 1 26.57 128a101.43 101.43 0 0 1 1.03-14.44 101.43 101.43 0 0 1 3.08-14.14 101.43 101.43 0 0 1 5.05-13.56 101.43 101.43 0 0 1 6.94-12.7 101.43 101.43 0 0 1 8.67-11.58 101.43 101.43 0 0 1 10.24-10.24 101.43 101.43 0 0 1 11.58-8.67 101.43 101.43 0 0 1 12.7-6.94 101.43 101.43 0 0 1 13.56-5.05 101.43 101.43 0 0 1 14.14-3.08A101.43 101.43 0 0 1 128 26.57zm20.44 34.45a13.35 13.35 0 0 0-12.08 8.54L94.7 176.74a13.35 13.35 0 0 0 7.62 17.33 13.35 13.35 0 0 0 17.33-7.63L161.3 79.26a13.35 13.35 0 0 0-12.87-18.24zM77.81 84.18c-3.32 0-6.64 1.28-9.2 3.83l-30.79 30.8c-5.1 5.09-5.1 13.3 0 18.39l30.8 30.8c5.1 5.09 13.3 5.09 18.4 0 5.09-5.1 5.09-13.3 0-18.4L65.4 128l21.6-21.6c5.1-5.1 5.1-13.3 0-18.4a12.97 12.97 0 0 0-9.2-3.82zm100.38 0c-3.33 0-6.65 1.28-9.2 3.83-5.1 5.1-5.1 13.3 0 18.39l21.6 21.6-21.6 21.6c-5.1 5.1-5.1 13.3 0 18.4 5.1 5.09 13.3 5.09 18.4 0l30.79-30.8c5.1-5.1 5.1-13.3 0-18.4L187.38 88a12.96 12.96 0 0 0-9.2-3.82z"/></svg>