<svg xmlns="http://www.w3.org/2000/svg" xmlns:xlink="http://www.w3.org/1999/xlink" viewBox="0,0,256,256" width="240px" height="240px"><g fill="#ffffff" fill-rule="nonzero" stroke="none" stroke-width="1" stroke-linecap="butt" stroke-linejoin="miter" stroke-miterlimit="10" stroke-dasharray="" stroke-dashoffset="0" font-family="none" font-weight="none" font-size="none" text-anchor="none" style="mix-blend-mode: normal"><g transform="scale(8.53333,8.53333)"><path d="M15,3c-6.61557,0 -12,5.38443 -12,12c0,6.61557 5.38443,12 12,12c6.61557,0 12,-5.38443 12,-12c0,-6.61557 -5.38443,-12 -12,-12zM14.00195,5.04883c0.02603,0.53237 0.46504,0.95077 0.99805,0.95117c0.53301,-0.00041 0.97202,-0.4188 0.99805,-0.95117c4.7345,0.46687 8.48625,4.21862 8.95313,8.95312c-0.53237,0.02603 -0.95077,0.46504 -0.95117,0.99805c0.00041,0.53301 0.4188,0.97202 0.95117,0.99805c-0.46687,4.7345 -4.21862,8.48625 -8.95312,8.95313c-0.02603,-0.53237 -0.46504,-0.95077 -0.99805,-0.95117c-0.53301,0.00041 -0.97202,0.4188 -0.99805,0.95117c-4.7345,-0.46687 -8.48625,-4.21862 -8.95312,-8.95312c0.53237,-0.02603 0.95077,-0.46504 0.95117,-0.99805c-0.00041,-0.53301 -0.4188,-0.97202 -0.95117,-0.99805c0.46687,-4.7345 4.21862,-8.48625 8.95312,-8.95312zM15,7c-4.418,0 -8,3.582 -8,8c0,4.418 3.582,8 8,8c4.418,0 8,-3.582 8,-8c0,-4.418 -3.582,-8 -8,-8zM15,9c0.553,0 1,0.448 1,1v4.58594l2.70703,2.70703c0.391,0.391 0.391,1.02306 0,1.41406c-0.195,0.195 -0.45103,0.29297 -0.70703,0.29297c-0.256,0 -0.51203,-0.09797 -0.70703,-0.29297l-3.29297,-3.29297v-5.41406c0,-0.552 0.447,-1 1,-1z"></path></g></g></svg>