<?xml version="1.0" encoding="UTF-8" standalone="no"?>
<svg
   width="250"
   height="250"
   viewBox="0 0 250 250"
   fill="none"
   version="1.1"
   id="svg4"
   sodipodi:docname="github.svg"
   inkscape:version="1.1.2 (0a00cf5339, 2022-02-04)"
   xmlns:inkscape="http://www.inkscape.org/namespaces/inkscape"
   xmlns:sodipodi="http://sodipodi.sourceforge.net/DTD/sodipodi-0.dtd"
   xmlns="http://www.w3.org/2000/svg"
   xmlns:svg="http://www.w3.org/2000/svg">
  <defs
     id="defs8" />
  <sodipodi:namedview
     id="namedview6"
     pagecolor="#ffffff"
     bordercolor="#666666"
     borderopacity="1.0"
     inkscape:pageshadow="2"
     inkscape:pageopacity="0.0"
     inkscape:pagecheckerboard="0"
     showgrid="false"
     width="250px"
     inkscape:zoom="1.8106061"
     inkscape:cx="135.31381"
     inkscape:cy="131.72385"
     inkscape:window-width="1366"
     inkscape:window-height="731"
     inkscape:window-x="0"
     inkscape:window-y="0"
     inkscape:window-maximized="1"
     inkscape:current-layer="svg4" />
  <path
     fill-rule="evenodd"
     clip-rule="evenodd"
     d="M 125.09972,7.8698675 C 58.686766,7.8698675 5.0000003,61.556686 5.0000003,127.9692 c 0,53.08993 34.3992947,98.02777 82.1209367,113.93545 5.965162,1.19304 8.152091,-2.5852 8.152091,-5.76691 0,-2.78345 -0.198246,-12.3277 -0.198246,-22.26935 -33.405434,7.1582 -40.36476,-14.31638 -40.36476,-14.31638 -5.368734,-13.919 -13.322311,-17.4981 -13.322311,-17.4981 -10.936157,-7.35733 0.795384,-7.35733 0.795384,-7.35733 12.129191,0.79566 18.492089,12.32772 18.492089,12.32772 10.737379,18.29374 28.036434,13.12422 34.996113,9.94251 0.993898,-7.75471 4.175613,-13.12335 7.555583,-16.10593 -26.644453,-2.78433 -54.680976,-13.12335 -54.680976,-59.25423 0,-13.12335 4.772218,-23.861529 12.328148,-32.212398 -1.193032,-2.982582 -5.368734,-15.310639 1.193031,-31.8144 0,0 10.140863,-3.18145 33.007699,12.328059 9.544258,-2.584934 19.883288,-3.976745 30.024938,-3.976745 10.14079,0 20.4798,1.391811 30.02405,3.976745 22.86676,-15.509509 33.00752,-12.328059 33.00752,-12.328059 6.56169,16.503761 2.38607,28.831818 1.19303,31.8144 7.75471,8.350869 12.3286,19.089048 12.3286,32.212398 0,46.13088 -28.03626,56.27166 -54.88037,59.25423 4.37474,3.77735 8.15297,10.93553 8.15297,22.27023 0,16.10594 -0.19913,29.03015 -0.19913,33.00663 0,3.18171 2.18693,6.95995 8.15209,5.76691 47.72218,-15.90768 82.12097,-60.84552 82.12097,-113.93545 C 245.19859,61.556686 191.313,7.8698675 125.09972,7.8698675 Z"
     fill="white"
     id="path2"
     style="fill:#ffffff;stroke-width:0.888996" />
</svg>
