<svg width="214" height="224" viewBox="0 0 214 224" fill="none" xmlns="http://www.w3.org/2000/svg">
<path d="M103.077 3.66249C103.933 -0.627398 110.067 -0.627416 110.923 3.66247L121.426 56.3107C122.037 59.3742 125.767 60.5862 128.062 58.467L167.506 22.0474C170.72 19.0799 175.682 22.6852 173.853 26.6588L151.404 75.4259C150.098 78.2636 152.403 81.4364 155.506 81.071L208.823 74.7912C213.167 74.2795 215.063 80.113 211.247 82.2526L164.422 108.511C161.697 110.039 161.697 113.961 164.422 115.489L211.247 141.747C215.063 143.887 213.167 149.721 208.823 149.209L155.506 142.929C152.403 142.564 150.098 145.736 151.404 148.574L173.853 197.341C175.682 201.315 170.72 204.92 167.506 201.953L128.062 165.533C125.767 163.414 122.037 164.626 121.426 167.689L110.923 220.338C110.067 224.627 103.933 224.627 103.077 220.338L92.5739 167.689C91.9627 164.626 88.2328 163.414 85.9376 165.533L46.4943 201.953C43.2804 204.92 38.3181 201.315 40.1473 197.341L62.5957 148.574C63.9019 145.736 61.5967 142.564 58.4943 142.929L5.17709 149.209C0.832693 149.721 -1.06275 143.887 2.75271 141.747L49.5784 115.489C52.3032 113.961 52.3032 110.039 49.5784 108.511L2.75272 82.2526C-1.06273 80.113 0.832673 74.2795 5.17707 74.7912L58.4943 81.071C61.5967 81.4364 63.9019 78.2636 62.5957 75.4259L40.1473 26.6588C38.3181 22.6852 43.2804 19.0799 46.4943 22.0474L85.9376 58.467C88.2328 60.5862 91.9627 59.3743 92.5739 56.3107L103.077 3.66249Z" fill="#D9D9D9"/>
</svg>
